<svg width="438" height="448" viewBox="0 0 438 448" fill="none" xmlns="http://www.w3.org/2000/svg">
<path d="M145.5 445.5L2 356.5L47.5 91L260 2M145.5 445.5L260 2M145.5 445.5L159 441.986M260 2L271 17.7812M348 128.25L260.75 415.5M348 128.25L359 144.031M348 128.25L337 112.469M260.75 415.5L275.156 411.75M260.75 415.5L246.344 419.25M304 65.125L203.125 430.5M304 65.125L315 80.9062M304 65.125L293 49.3438M203.125 430.5L217.531 426.75M203.125 430.5L187.812 434.486M318.375 400.5L392 191.375M318.375 400.5L332.781 396.75M318.375 400.5L303.969 404.25M392 191.375L403 207.156M392 191.375L381 175.594M370 159.812L289.562 408M370 159.812L381 175.594M370 159.812L359 144.031M289.562 408L303.969 404.25M289.562 408L275.156 411.75M347.188 393L414 222.938M347.188 393L361.594 389.25M347.188 393L332.781 396.75M414 222.938L425 238.719M414 222.938L403 207.156M425 238.719L436 254.5L376 385.5L361.594 389.25M425 238.719L361.594 389.25M231.938 423L326 96.6875M231.938 423L246.344 419.25M231.938 423L217.531 426.75M326 96.6875L337 112.469M326 96.6875L315 80.9062M282 33.5625L172.5 438.472M282 33.5625L293 49.3438M282 33.5625L271 17.7812M172.5 438.472L187.812 434.486M172.5 438.472L159 441.986M403 207.156L332.781 396.75M303.969 404.25L381 175.594M359 144.031L275.156 411.75M246.344 419.25L337 112.469M315 80.9062L217.531 426.75M187.812 434.486L293 49.3438M271 17.7812L159 441.986" stroke="black" stroke-width="3"/>
</svg>
